<?xml version="1.0" encoding="UTF-8"?>
<svg data-bbox="20 16 1215 252" viewBox="0 0 1330 350" height="350" width="1330" xmlns="http://www.w3.org/2000/svg" data-type="ugc">
    <g>
        <defs>
            <linearGradient y2="1" x2="1" y1="0" x1="0" id="213eecd2-e3f5-4d17-b014-56cf947db858">
                <stop stop-color="#0B3F4D" offset="0"/>
                <stop stop-color="#0F4C5C" offset="1"/>
            </linearGradient>
            <linearGradient y2="1" x2="1" y1="0" x1="0" id="13a37fe2-d4ee-49fa-a94e-807de6072e61">
                <stop stop-color="#707D86" offset="0"/>
                <stop stop-color="#5E6B73" offset="1"/>
            </linearGradient>
        </defs>
        <path d="m20 62 46-46h206l-43 46H78l-8 8v144h202l-43 46H20Z" fill="url(#213eecd2-e3f5-4d17-b014-56cf947db858)"/>
        <path d="M88 110h150l-34 48H88Z" fill="url(#13a37fe2-d4ee-49fa-a94e-807de6072e61)"/>
        <path d="M115.434 136.979 124.283 150h-6.853l-5.96-8.717-5.918 8.717h-6.885l8.854-13.021-8.515-12.496h6.874l5.59 8.219 5.567-8.219h6.907zm12.651-12.496h23.516v4.976h-8.46V150h-6.579v-20.541h-8.477zm30.862 0h8.373l5.807 13.655 5.846-13.655h8.357V150h-6.218v-18.665l-5.879 13.76h-4.173l-5.879-13.76V150h-6.234z" fill="#FFFFFF"/>
        <path d="M335 72.819h87.085v24.414h-54.811v23.287h51.565v24.414h-51.565v28.679h56.662V198H335zm187.044 61.303L565.452 198h-33.616l-29.243-42.764L473.565 198h-33.777l43.435-63.878-41.772-61.303h33.724l27.418 40.323 27.311-40.323h33.885zm47.684-61.303H685.09v24.414h-41.504V198h-32.274V97.233h-41.584zm132.066 0h87.084v24.414h-54.81v23.287h51.564v24.414h-51.564v28.679h56.662V198h-88.936zm117.29 0h41.074l28.492 66.99 28.679-66.99h40.994V198h-30.504v-91.565l-28.841 67.5h-20.47l-28.84-67.5V198h-30.584zm246.814 102.377h-50.464L1007.466 198h-32.463l46.36-125.181h38.498L1106.221 198h-32.436zm-42.416-23.233h34.287l-17.117-49.794zm99.349-79.144h36.03l45.528 85.851V72.819H1235V198h-36.057l-45.528-85.851V198h-30.584z" fill="url(#213eecd2-e3f5-4d17-b014-56cf947db858)"/>
        <path d="M338 245.273h15.508v4.348h-9.761v4.146h9.183v4.348h-9.183v5.107h10.091v4.343H338zm33.309 10.917 7.73 11.375h-5.986l-5.208-7.615-5.169 7.615h-6.015l7.735-11.375-7.439-10.917h6.005l4.883 7.181 4.864-7.181h6.034zm27.721 10.152q-1.586.822-3.301 1.238-1.715.42-3.583.42-5.571 0-8.824-3.115t-3.254-8.442q0-5.346 3.254-8.456 3.253-3.115 8.824-3.115 1.868 0 3.583.42 1.715.416 3.301 1.237v4.611q-1.6-1.09-3.153-1.596t-3.268-.506q-3.076 0-4.839 1.973-1.759 1.968-1.759 5.432 0 3.449 1.759 5.423 1.763 1.968 4.839 1.968 1.715 0 3.268-.507 1.553-.511 3.153-1.6zm4.763-21.069h15.508v4.348h-9.76v4.146h9.182v4.348h-9.182v5.107h10.09v4.343h-15.838zm20.887 0h5.748v17.949h10.09v4.343H424.68zm19.484 0h15.508v4.348h-9.761v4.146h9.183v4.348h-9.183v5.107h10.091v4.343h-15.838zm20.887 0h6.416l8.108 15.288v-15.288h5.451v22.292h-6.421l-8.107-15.288v15.288h-5.447zm43.267 21.069q-1.586.822-3.301 1.238-1.715.42-3.583.42-5.571 0-8.824-3.115t-3.254-8.442q0-5.346 3.254-8.456 3.253-3.115 8.824-3.115 1.868 0 3.583.42 1.715.416 3.301 1.237v4.611q-1.6-1.09-3.153-1.596t-3.268-.506q-3.077 0-4.839 1.973-1.759 1.968-1.759 5.432 0 3.449 1.759 5.423 1.762 1.968 4.839 1.968 1.715 0 3.268-.507 1.553-.511 3.153-1.6zm4.763-21.069h5.748v22.292h-5.748zm24.902 18.231h-8.986l-1.419 4.061h-5.781l8.255-22.292h6.856l8.256 22.292h-5.776zm-7.553-4.137h6.106l-3.049-8.867zm25.676-14.094h20.544v4.348h-7.391v17.944h-5.748v-17.944h-7.405zm23.518 0h15.508v4.348h-9.76v4.146h9.182v4.348h-9.182v5.107h10.09v4.343h-15.838zm8.27-5.996h4.229l-4.257 3.942h-2.924zm30.295 27.065q-1.587.822-3.302 1.238-1.715.42-3.583.42-5.571 0-8.824-3.115t-3.254-8.442q0-5.346 3.254-8.456 3.253-3.115 8.824-3.115 1.868 0 3.583.42 1.715.416 3.302 1.237v4.611q-1.601-1.09-3.154-1.596t-3.268-.506q-3.076 0-4.839 1.973-1.758 1.968-1.758 5.432 0 3.449 1.758 5.423 1.763 1.968 4.839 1.968 1.716 0 3.268-.507 1.553-.511 3.154-1.6zm4.762-21.069h6.417l8.107 15.288v-15.288h5.452v22.292h-6.422l-8.107-15.288v15.288h-5.447zm25.59 0h5.748v22.292h-5.748zm29.054 21.069q-1.586.822-3.301 1.238-1.715.42-3.583.42-5.571 0-8.825-3.115t-3.253-8.442q0-5.346 3.253-8.456 3.254-3.115 8.825-3.115 1.868 0 3.583.42 1.715.416 3.301 1.237v4.611q-1.6-1.09-3.153-1.596t-3.268-.506q-3.077 0-4.84 1.973-1.758 1.968-1.758 5.432 0 3.449 1.758 5.423 1.763 1.968 4.84 1.968 1.715 0 3.268-.507 1.553-.511 3.153-1.6zm18.288-2.838h-8.986l-1.419 4.061h-5.781l8.256-22.292h6.855l8.256 22.292h-5.776zm-7.553-4.137h6.106l-3.048-8.867zm28.337-14.094h9.536q4.257 0 6.531 1.892 2.279 1.887 2.279 5.379 0 3.512-2.279 5.399-2.274 1.887-6.531 1.887h-3.788v7.735h-5.748zm5.748 4.166v6.225h3.177q1.672 0 2.584-.812t.913-2.308q0-1.49-.913-2.298-.912-.807-2.584-.807zm27.398 14.065h-8.987l-1.419 4.061h-5.781l8.256-22.292h6.856l8.255 22.292h-5.776zm-7.554-4.137h6.106l-3.048-8.867zm25.857-4.209q1.806 0 2.59-.669.783-.674.783-2.212 0-1.524-.783-2.179-.784-.659-2.59-.659h-2.417v5.719zm-2.417 3.97v8.437h-5.748v-22.292h8.777q4.405 0 6.454 1.481 2.055 1.476 2.055 4.672 0 2.208-1.071 3.627-1.065 1.419-3.215 2.092 1.18.268 2.112 1.219.936.946 1.892 2.871l3.12 6.33h-6.121l-2.718-5.537q-.822-1.672-1.667-2.284-.841-.616-2.246-.616zm31.322 4.376h-8.986l-1.419 4.061h-5.781l8.255-22.292h6.856l8.256 22.292h-5.776zm-7.553-4.137h6.106l-3.048-8.867zm28.337-14.094h15.508v4.348h-9.76v4.146h9.182v4.348h-9.182v5.107h10.09v4.343h-15.838zm20.887 0h5.748v17.949h10.09v4.343h-15.838zm30.129 0h7.315l5.073 11.93 5.108-11.93h7.3v22.292h-5.432v-16.306l-5.136 12.021h-3.645l-5.136-12.021v16.306h-5.447zm43.953 18.231h-8.987l-1.419 4.061h-5.781l8.256-22.292h6.856l8.256 22.292h-5.776zm-7.553-4.137h6.105l-3.048-8.867zm17.692-14.094h6.416l8.108 15.288v-15.288h5.451v22.292h-6.421l-8.108-15.288v15.288h-5.446zm22.929 0h20.543v4.348h-7.391v17.944h-5.747v-17.944h-7.405zm23.518 0h15.508v4.348h-9.76v4.146h9.182v4.348h-9.182v5.107h10.09v4.343H969.36zm20.887 0h6.417l8.107 15.288v-15.288h5.451v22.292h-6.421l-8.107-15.288v15.288h-5.447zm25.59 0h5.748v22.292h-5.748zm11.377 0h7.315l5.073 11.93 5.108-11.93h7.3v22.292h-5.432v-16.306l-5.136 12.021h-3.646l-5.136-12.021v16.306h-5.446zm30.427 0h5.748v22.292h-5.748zm11.377 0h15.508v4.348h-9.76v4.146h9.182v4.348h-9.182v5.107h10.09v4.343h-15.838zm20.887 0h6.417l8.107 15.288v-15.288h5.451v22.292h-6.421l-8.107-15.288v15.288h-5.447zm22.929 0h20.544v4.348h-7.391v17.944h-5.747v-17.944h-7.406zm33.7 3.765q-2.628 0-4.076 1.939t-1.447 5.466q0 3.507 1.447 5.451 1.448 1.94 4.076 1.94 2.642 0 4.089-1.94 1.448-1.944 1.448-5.451 0-3.526-1.448-5.466-1.447-1.939-4.089-1.939m0-4.166q5.375 0 8.418 3.076 3.048 3.072 3.048 8.495 0 5.403-3.048 8.48-3.043 3.077-8.418 3.077-5.361 0-8.414-3.077t-3.053-8.48q0-5.423 3.053-8.495 3.053-3.076 8.414-3.076" fill="#5E6B73"/>
    </g>
</svg>
